<svg width="291" height="64" viewBox="0 0 291 64" fill="none" xmlns="http://www.w3.org/2000/svg">
  <rect width="64" height="64" rx="16" fill="#f05c2a"/>
  <path d="M42.023 13.428a8.533 8.533 0 0 1 8.533 8.533v20.267a8.533 8.533 0 0 1-8.533 8.533H21.756a8.533 8.533 0 0 1-8.533-8.533V21.961a8.533 8.533 0 0 1 8.533-8.533zM29.226 46.495h12.797a4.267 4.267 0 0 0 4.266-4.267v-11.2H29.226zm-11.737-4.267a4.267 4.267 0 0 0 4.267 4.267h3.203V31.028h-7.47zm11.737-15.467h17.063v-4.8a4.267 4.267 0 0 0-4.267-4.266H29.227zm-7.47-9.066a4.267 4.267 0 0 0-4.267 4.266v4.8h7.47v-9.066z" fill="#fff"/>
  <path d="M288.576 24.777c.758 0 1.274.77.987 1.471l-11.271 27.528c-.164.4-.554.662-.987.662h-1.154a1.067 1.067 0 0 1-.988-1.47l3.208-7.842c.106-.258.106-.548.001-.806l-7.37-18.073a1.067 1.067 0 0 1 .988-1.47h1.399c.441 0 .836.271.995.682l5.065 13.075c.353.91 1.642.908 1.991-.004l5.003-13.067c.158-.413.555-.686.996-.686zm-41.901 10.01q0-3.091 1.251-5.41 1.252-2.355 3.423-3.643 2.208-1.288 4.894-1.288 2.65 0 4.6 1.14.54.317 1.004.677c.615.48 1.903.049 1.903-.73 0-.418.339-.756.756-.756h1.563c.59 0 1.067.478 1.067 1.067v18.033c0 .589-.477 1.066-1.067 1.066h-1.539a.78.78 0 0 1-.78-.779c0-.802-1.307-1.239-1.937-.742q-.482.38-1.043.712-1.951 1.14-4.564 1.14-2.686 0-4.857-1.324t-3.423-3.717-1.251-5.446m17.075.036q0-2.281-.92-3.974-.92-1.692-2.502-2.576-1.545-.92-3.422-.92t-3.423.883q-1.545.884-2.465 2.576t-.92 3.975q0 2.318.92 4.048.92 1.693 2.465 2.612 1.546.885 3.423.884 1.877 0 3.422-.884 1.582-.92 2.502-2.612.92-1.73.92-4.012m-23.093-4.431c-.543.461-.472 2.034.083 2.481a6.4 6.4 0 0 1 1.84 2.282q.699 1.361.699 2.907 0 1.95-.994 3.533-.993 1.545-2.907 2.465-1.876.884-4.453.883h-8.501a1.067 1.067 0 0 1-1.067-1.066V20.36c0-.59.478-1.067 1.067-1.067h8.133q2.613 0 4.453.883 1.84.846 2.76 2.319.92 1.47.92 3.312 0 2.28-1.251 3.79a6.3 6.3 0 0 1-.782.794m-11.951-1.088c0 .59.478 1.067 1.067 1.067h4.564q2.355 0 3.643-1.104t1.288-3.055-1.288-3.054-3.717-1.104h-4.49c-.589 0-1.067.478-1.067 1.067zm5.925 12.88q2.502 0 3.901-1.178 1.398-1.178 1.398-3.275 0-2.135-1.472-3.35-1.472-1.25-3.937-1.25h-4.748c-.589 0-1.067.477-1.067 1.066v6.92c0 .589.478 1.067 1.067 1.067zm-15.14-2.687c.59 0 1.067.478 1.067 1.067v3.203c0 .589-.477 1.066-1.067 1.066h-2.135q-3.422 0-5.336-1.656-1.913-1.692-1.913-5.483V30.59c0-.59-.478-1.067-1.067-1.067h-.369a1.067 1.067 0 0 1-1.067-1.066v-3.093c0-.589.478-1.066 1.067-1.066h.369c.589 0 1.067-.478 1.067-1.067V20.36c0-.59.477-1.067 1.067-1.067h4.159c.589 0 1.067.477 1.067 1.067v2.871c0 .59.477 1.067 1.066 1.067h1.989c.589 0 1.066.477 1.066 1.066v3.093c0 .589-.477 1.066-1.066 1.066h-1.989c-.589 0-1.066.478-1.066 1.067v7.177q0 .92.441 1.324.442.405 1.472.405zm-33.91-4.931q0-3.201 1.288-5.594 1.325-2.39 3.643-3.68 2.355-1.288 5.373-1.288 3.864 0 6.44 2.024 2.14 1.657 3.07 4.426c.217.646-.293 1.278-.974 1.278H199.8c-.45 0-.839-.29-1.056-.684q-.923-1.67-2.969-1.67-1.73 0-2.76 1.36-1.03 1.326-1.031 3.828t1.031 3.864q1.03 1.325 2.76 1.325 2.046 0 2.969-1.671c.217-.394.606-.684 1.056-.684h4.615c.683 0 1.193.636.971 1.282q-.931 2.705-3.061 4.385-2.613 2.06-6.44 2.06-3.018 0-5.373-1.287-2.318-1.289-3.643-3.68-1.288-2.393-1.288-5.594m-4.336-10.268c.589 0 1.067.478 1.067 1.067v18.401c0 .59-.478 1.067-1.067 1.067h-4.554a.67.67 0 0 1-.672-.672c0-.656-.955-1.006-1.482-.615a8 8 0 0 1-1.131.698q-1.619.81-3.606.81-2.355 0-4.159-1.03-1.803-1.068-2.796-3.055-.994-1.988-.994-4.674v-10.93c0-.59.478-1.067 1.067-1.067h4.122c.59 0 1.067.478 1.067 1.067v10.084q0 2.06 1.067 3.201 1.068 1.14 2.871 1.141 1.839 0 2.907-1.14 1.067-1.141 1.067-3.202V25.364c0-.59.478-1.067 1.067-1.067zm-45.438 10.231q0-3.165 1.177-5.557 1.215-2.391 3.275-3.68 2.061-1.288 4.6-1.288 2.024 0 3.68.847c.944.472 2.65-.186 2.65-1.242v-4.941c0-.59.478-1.067 1.067-1.067h4.159c.589 0 1.067.478 1.067 1.067v25.098c0 .59-.478 1.067-1.067 1.067h-4.587a.64.64 0 0 1-.639-.639c0-.647-1.016-.993-1.529-.598a7 7 0 0 1-1.01.648q-1.62.884-3.791.883-2.539 0-4.6-1.287-2.06-1.326-3.275-3.717-1.177-2.43-1.177-5.594m15.382.037q0-2.356-1.325-3.717-1.287-1.362-3.165-1.361-1.877 0-3.201 1.361-1.288 1.325-1.288 3.68t1.288 3.754q1.325 1.36 3.201 1.361 1.878 0 3.165-1.361 1.325-1.362 1.325-3.717m-28.215 10.562q-3.017 0-5.447-1.288-2.391-1.289-3.79-3.68-1.362-2.393-1.362-5.594 0-3.165 1.399-5.557 1.398-2.429 3.827-3.717t5.446-1.288q3.018 0 5.447 1.288 2.429 1.29 3.827 3.717 1.398 2.392 1.398 5.557t-1.435 5.594a9.46 9.46 0 0 1-3.864 3.68q-2.428 1.287-5.446 1.288m0-5.447q1.803 0 3.054-1.325 1.288-1.324 1.288-3.79t-1.251-3.79q-1.214-1.326-3.018-1.325-1.839 0-3.054 1.325-1.215 1.288-1.214 3.79 0 2.466 1.177 3.79 1.215 1.326 3.018 1.325m-18.795-14.598c0 .78 1.145 1.17 1.752.68a8 8 0 0 1 1.008-.691 6.9 6.9 0 0 1 2.617-.922c.583-.08 1.063.406 1.063.995v4.527c0 .59-.478 1.067-1.067 1.067h-.663q-2.355 0-3.532 1.03-1.178.994-1.178 3.533v8.465c0 .589-.478 1.066-1.067 1.066h-4.16a1.066 1.066 0 0 1-1.066-1.066V25.365c0-.59.478-1.067 1.067-1.067h4.442c.433 0 .784.351.784.784m-9.569 2.233q0 2.245-1.03 4.122-1.03 1.84-3.165 2.98-2.135 1.142-5.299 1.142h-2.834c-.59 0-1.067.477-1.067 1.066v7.14c0 .59-.477 1.067-1.067 1.067H75.99c-.59 0-1.067-.477-1.067-1.066v-23.7c0-.59.478-1.067 1.067-1.067h9.127q3.09 0 5.226 1.067 2.134 1.067 3.201 2.944 1.068 1.876 1.067 4.305m-9.972 3.239q1.803 0 2.686-.847.883-.846.883-2.392t-.883-2.392-2.686-.846h-2.356c-.59 0-1.067.477-1.067 1.067v4.343c0 .59.478 1.067 1.067 1.067z" fill="#001f3f"/>
</svg>
